<?xml version="1.0" encoding="UTF-8" standalone="no"?><svg xmlns="http://www.w3.org/2000/svg" xmlns:xlink="http://www.w3.org/1999/xlink" contentScriptType="application/ecmascript" contentStyleType="text/css" height="303px" preserveAspectRatio="none" style="width:344px;height:303px;" version="1.1" viewBox="0 0 344 303" width="344px" zoomAndPan="magnify"><defs><filter height="300%" id="f18b96i27p8zvp" width="300%" x="-1" y="-1"><feGaussianBlur result="blurOut" stdDeviation="2.0"/><feColorMatrix in="blurOut" result="blurOut2" type="matrix" values="0 0 0 0 0 0 0 0 0 0 0 0 0 0 0 0 0 0 .4 0"/><feOffset dx="4.0" dy="4.0" in="blurOut2" result="blurOut3"/><feBlend in="SourceGraphic" in2="blurOut3" mode="normal"/></filter></defs><g><!--MD5=[992eddbc9488fa303d3d362d7c1f578a]
class AnzeigeGUI--><rect fill="#FEFECE" filter="url(#f18b96i27p8zvp)" height="73.6094" id="AnzeigeGUI" style="stroke: #A80036; stroke-width: 1.5;" width="139" x="6" y="33.5"/><ellipse cx="38.1" cy="49.5" fill="#ADD1B2" rx="11" ry="11" style="stroke: #A80036; stroke-width: 1.0;"/><path d="M41.0688,55.1406 Q40.4906,55.4375 39.85,55.5781 Q39.2094,55.7344 38.5063,55.7344 Q36.0063,55.7344 34.6781,54.0938 Q33.3656,52.4375 33.3656,49.3125 Q33.3656,46.1875 34.6781,44.5313 Q36.0063,42.875 38.5063,42.875 Q39.2094,42.875 39.85,43.0313 Q40.5063,43.1875 41.0688,43.4844 L41.0688,46.2031 Q40.4438,45.625 39.85,45.3594 Q39.2563,45.0781 38.6313,45.0781 Q37.2875,45.0781 36.6,46.1563 Q35.9125,47.2188 35.9125,49.3125 Q35.9125,51.4063 36.6,52.4844 Q37.2875,53.5469 38.6313,53.5469 Q39.2563,53.5469 39.85,53.2813 Q40.4438,53 41.0688,52.4219 L41.0688,55.1406 Z "/><text fill="#000000" font-family="sans-serif" font-size="12" lengthAdjust="spacingAndGlyphs" textLength="69" x="55.9" y="53.6543">AnzeigeGUI</text><line style="stroke: #A80036; stroke-width: 1.5;" x1="7" x2="144" y1="65.5" y2="65.5"/><text fill="#000000" font-family="sans-serif" font-size="11" lengthAdjust="spacingAndGlyphs" textLength="95" x="12" y="79.7104">+TemplateName</text><line style="stroke: #A80036; stroke-width: 1.5;" x1="7" x2="144" y1="86.3047" y2="86.3047"/><text fill="#000000" font-family="sans-serif" font-size="11" lengthAdjust="spacingAndGlyphs" textLength="127" x="12" y="100.5151">+GUITemplate_laden()</text><!--MD5=[8b9d7981a4a332ed91900427c7bd1327]
class DatenbankConnect--><rect fill="#FEFECE" filter="url(#f18b96i27p8zvp)" height="124.8281" id="DatenbankConnect" style="stroke: #A80036; stroke-width: 1.5;" width="153" x="180" y="8"/><ellipse cx="195" cy="24" fill="#ADD1B2" rx="11" ry="11" style="stroke: #A80036; stroke-width: 1.0;"/><path d="M197.9688,29.6406 Q197.3906,29.9375 196.75,30.0781 Q196.1094,30.2344 195.4063,30.2344 Q192.9063,30.2344 191.5781,28.5938 Q190.2656,26.9375 190.2656,23.8125 Q190.2656,20.6875 191.5781,19.0313 Q192.9063,17.375 195.4063,17.375 Q196.1094,17.375 196.75,17.5313 Q197.4063,17.6875 197.9688,17.9844 L197.9688,20.7031 Q197.3438,20.125 196.75,19.8594 Q196.1563,19.5781 195.5313,19.5781 Q194.1875,19.5781 193.5,20.6563 Q192.8125,21.7188 192.8125,23.8125 Q192.8125,25.9063 193.5,26.9844 Q194.1875,28.0469 195.5313,28.0469 Q196.1563,28.0469 196.75,27.7813 Q197.3438,27.5 197.9688,26.9219 L197.9688,29.6406 Z "/><text fill="#000000" font-family="sans-serif" font-size="12" lengthAdjust="spacingAndGlyphs" textLength="121" x="209" y="28.1543">DatenbankConnect</text><line style="stroke: #A80036; stroke-width: 1.5;" x1="181" x2="332" y1="40" y2="40"/><text fill="#000000" font-family="sans-serif" font-size="11" lengthAdjust="spacingAndGlyphs" textLength="72" x="186" y="54.2104">-Nutzername</text><text fill="#000000" font-family="sans-serif" font-size="11" lengthAdjust="spacingAndGlyphs" textLength="57" x="186" y="67.0151">-Passwort</text><text fill="#000000" font-family="sans-serif" font-size="11" lengthAdjust="spacingAndGlyphs" textLength="64" x="186" y="79.8198">-Datenbank</text><line style="stroke: #A80036; stroke-width: 1.5;" x1="181" x2="332" y1="86.4141" y2="86.4141"/><text fill="#000000" font-family="sans-serif" font-size="11" lengthAdjust="spacingAndGlyphs" textLength="74" x="186" y="100.6245">-DBConnect()</text><text fill="#000000" font-family="sans-serif" font-size="11" lengthAdjust="spacingAndGlyphs" textLength="60" x="186" y="113.4292">-DBClose()</text><text fill="#000000" font-family="sans-serif" font-size="11" lengthAdjust="spacingAndGlyphs" textLength="72" x="186" y="126.2339">+DBQuerry()</text><!--MD5=[8b4dfaaf9c29fe17cc2aa2c8fb9ef2b2]
class __________--><rect fill="#FEFECE" filter="url(#f18b96i27p8zvp)" height="99.2188" id="__________" style="stroke: #A80036; stroke-width: 1.5;" width="92" x="210.5" y="193"/><ellipse cx="225.5" cy="209" fill="#ADD1B2" rx="11" ry="11" style="stroke: #A80036; stroke-width: 1.0;"/><path d="M228.4688,214.6406 Q227.8906,214.9375 227.25,215.0781 Q226.6094,215.2344 225.9063,215.2344 Q223.4063,215.2344 222.0781,213.5938 Q220.7656,211.9375 220.7656,208.8125 Q220.7656,205.6875 222.0781,204.0313 Q223.4063,202.375 225.9063,202.375 Q226.6094,202.375 227.25,202.5313 Q227.9063,202.6875 228.4688,202.9844 L228.4688,205.7031 Q227.8438,205.125 227.25,204.8594 Q226.6563,204.5781 226.0313,204.5781 Q224.6875,204.5781 224,205.6563 Q223.3125,206.7188 223.3125,208.8125 Q223.3125,210.9063 224,211.9844 Q224.6875,213.0469 226.0313,213.0469 Q226.6563,213.0469 227.25,212.7813 Q227.8438,212.5 228.4688,211.9219 L228.4688,214.6406 Z "/><text fill="#000000" font-family="sans-serif" font-size="12" lengthAdjust="spacingAndGlyphs" textLength="60" x="239.5" y="213.1543">__________</text><line style="stroke: #A80036; stroke-width: 1.5;" x1="211.5" x2="301.5" y1="225" y2="225"/><text fill="#000000" font-family="sans-serif" font-size="11" lengthAdjust="spacingAndGlyphs" textLength="0" x="220.5" y="239.2104"/><text fill="#000000" font-family="sans-serif" font-size="11" lengthAdjust="spacingAndGlyphs" textLength="0" x="220.5" y="252.0151"/><line style="stroke: #A80036; stroke-width: 1.0;" x1="211.5" x2="301.5" y1="258.6094" y2="258.6094"/><text fill="#000000" font-family="sans-serif" font-size="11" lengthAdjust="spacingAndGlyphs" textLength="0" x="220.5" y="272.8198"/><text fill="#000000" font-family="sans-serif" font-size="11" lengthAdjust="spacingAndGlyphs" textLength="0" x="220.5" y="285.6245"/><!--MD5=[f268e312872c706e75232122938cad37]
link AnzeigeGUI to DatenbankConnect--><path d="M145.14,70.5 C156.74,70.5 168.34,70.5 179.94,70.5 " fill="none" id="AnzeigeGUI-DatenbankConnect" style="stroke: #A80036; stroke-width: 1.0;"/><text fill="#000000" font-family="sans-serif" font-size="13" lengthAdjust="spacingAndGlyphs" textLength="8" x="153.1944" y="66.7752">1</text><text fill="#000000" font-family="sans-serif" font-size="13" lengthAdjust="spacingAndGlyphs" textLength="7" x="165.0591" y="66.8436">*</text><!--MD5=[e90fe743024f2641c5d256a1eb8bc1c8]
link DatenbankConnect to __________--><!--MD5=[98324489b243e38e2ad36d9b700da3dc]
@startuml
skinparam classAttributeIconSize 0


class AnzeigeGUI {
+ TemplateName
+ GUITemplate_laden()
}

class DatenbankConnect {
- Nutzername
- Passwort
- Datenbank
- DBConnect()
- DBClose()
+ DBQuerry()
}
class __________ {


- - -


}

AnzeigeGUI "1" - "*" DatenbankConnect
DatenbankConnect -[hidden]-> __________

@enduml

PlantUML version 1.2020.02(Sun Mar 01 10:22:07 UTC 2020)
(GPL source distribution)
Java Runtime: OpenJDK Runtime Environment
JVM: OpenJDK 64-Bit Server VM
Java Version: 11.0.18+10
Operating System: Linux
Default Encoding: UTF-8
Language: en
Country: null
--></g></svg>